<svg xmlns="http://www.w3.org/2000/svg" fill="none" viewBox="0 0 24 24" id="Airflow-Icon--Streamline-Svg-Logos" height="24" width="24">
  <desc>
    Airflow Icon Streamline Icon: https://streamlinehq.com
  </desc>
  <path fill="#017cee" d="M0.6288175 23.656425 11.88025 12.123175c0.071675 -0.070825 0.082275 -0.18285 0.02515 -0.26585 -0.684175 -0.955225 -1.94675 -1.120875 -2.4146 -1.76275 -1.3859 -1.90125 -1.737575 -2.9774 -2.33315 -2.91075 -0.04155 0.005975 -0.079775 0.02615 -0.108175 0.0571L2.985125 11.40745C0.64678 13.802475 0.3106775 19.081525 0.2500025 23.50235c-0.00040175 0.089975 0.0539625 0.171175 0.137325 0.205075 0.08336 0.033925 0.1789625 0.013725 0.24149 -0.051Z" stroke-width="0.25"></path>
  <path fill="#00ad46" d="m23.655725 23.371825 -11.53325 -11.25225c-0.070875 -0.071875 -0.18315 -0.0825 -0.26625 -0.025125 -0.955225 0.684575 -1.120875 1.94675 -1.762725 2.414575 -1.901275 1.385925 -2.977425 1.7376 -2.910775 2.33315 0.006075 0.041425 0.026225 0.079475 0.0571 0.107775l4.166525 4.064375c2.39505 2.338325 7.674075 2.674425 12.0949 2.7351 0.089525 0 0.170175 -0.05405 0.204075 -0.1369 0.0339 -0.082875 0.0143 -0.178 -0.0496 -0.2407Z" stroke-width="0.25"></path>
  <path fill="#04d659" d="M11.40645 21.01545c-1.309275 -1.27735 -1.916025 -3.8041 0.593175 -9.014475C7.9205 13.824 6.491075 16.220225 7.194 16.9064l4.21245 4.10905Z" stroke-width="0.25"></path>
  <path fill="#00c7d4" d="M23.370825 0.34528 12.119775 11.878525c-0.071825 0.07075 -0.082425 0.182875 -0.025125 0.26585 0.684575 0.955225 1.94635 1.120875 2.414575 1.76275 1.385925 1.90125 1.738 2.9774 2.33315 2.91075 0.0416 -0.005925 0.079825 -0.0261 0.108175 -0.0571L21.014925 12.59425c2.338325 -2.395025 2.674425 -7.674075 2.7351 -12.09489 0.000175 -0.089975 -0.054275 -0.1710475 -0.13765 -0.2049175 -0.08335 -0.03387 -0.178925 -0.0137575 -0.24155 0.0508375Z" stroke-width="0.25"></path>
  <path fill="#11e1ee" d="M21.016825 12.59415c-1.27735 1.309275 -3.8041 1.916025 -9.014875 -0.593175 1.823025 4.079125 4.21925 5.50855 4.905425 4.805625l4.10945 -4.21245Z" stroke-width="0.25"></path>
  <path fill="#e43921" d="M0.3434325 0.6298325 11.876675 11.880875c0.070825 0.071675 0.18285 0.082275 0.26585 0.02515 0.955225 -0.6846 1.120875 -1.946775 1.76275 -2.4146 1.90125 -1.385925 2.9774 -1.7376 2.91075 -2.33315 -0.006075 -0.041525 -0.026225 -0.079725 -0.057075 -0.108175L12.5924 2.98575C10.197375 0.647395 4.918325 0.3112925 0.4975125 0.250615c-0.090175 -0.00057 -0.1715975 0.0538575 -0.20554 0.1374 -0.033945 0.08354 -0.01356 0.179335 0.05146 0.2418175Z" stroke-width="0.25"></path>
  <path fill="#ff7557" d="M12.5944 2.9862c1.309275 1.27735 1.916 3.8041 -0.593175 9.014875 4.079125 -1.823 5.50855 -4.219625 4.805625 -4.9054L12.5944 2.9862Z" stroke-width="0.25"></path>
  <path fill="#0cb6ff" d="M2.9851 11.407925c1.27735 -1.309275 3.8041 -1.916025 9.014875 0.593175 -1.823 -4.07915 -4.219225 -5.508575 -4.9054 -4.805625L2.9851 11.407925Z" stroke-width="0.25"></path>
  <path fill="#4a4848" d="M12.001625 12.502c0.277775 0 0.50295 -0.225175 0.50295 -0.50295s-0.225175 -0.50295 -0.50295 -0.50295 -0.502975 0.225175 -0.502975 0.50295 0.2252 0.50295 0.502975 0.50295Z" stroke-width="0.25"></path>
</svg>