<?xml version="1.0" encoding="utf-8"?>
<!-- Generator: Adobe Illustrator 15.0.0, SVG Export Plug-In . SVG Version: 6.00 Build 0)  -->
<!DOCTYPE svg PUBLIC "-//W3C//DTD SVG 1.1//EN" "http://www.w3.org/Graphics/SVG/1.1/DTD/svg11.dtd">
<svg version="1.1" id="Layer_1" xmlns="http://www.w3.org/2000/svg" xmlns:xlink="http://www.w3.org/1999/xlink" x="0px" y="0px"
	 width="248.03px" height="141.732px" viewBox="0 0 248.03 141.732" enable-background="new 0 0 248.03 141.732"
	 xml:space="preserve">
<g>
	<rect x="103.15" y="7.414" fill="#1C75BC" width="41.736" height="126.904"/>
	<rect x="150.918" y="81.056" fill="#1C75BC" width="41.733" height="53.262"/>
	<rect x="55.384" y="81.056" fill="#1C75BC" width="41.732" height="53.262"/>
	<rect x="7.616" y="125.563" fill="#1C75BC" width="41.734" height="8.755"/>
	<rect x="198.684" y="125.563" fill="#1C75BC" width="41.733" height="8.755"/>
	<path d="M243.435,119.693h-44.751V78.121c0-1.621-1.35-2.932-3.018-2.932h-44.748V4.479c0-1.621-1.35-2.935-3.015-2.935h-47.77
		c-1.665,0-3.018,1.313-3.018,2.935v70.71H52.368c-1.665,0-3.018,1.311-3.018,2.932v41.572H4.6c-1.667,0-3.018,1.313-3.018,2.935
		v14.624c0,1.621,1.35,2.935,3.018,2.935h238.835c1.665,0,3.016-1.313,3.016-2.935v-14.624
		C246.451,121.007,245.1,119.693,243.435,119.693z M240.417,134.317h-41.733v-8.755h41.733V134.317z M192.652,134.317h-41.733
		V81.056h41.733V134.317z M144.886,134.317H103.15V7.414h41.736V134.317z M97.116,134.317H55.384V81.056h41.732V134.317z
		 M49.35,134.317H7.616v-8.755H49.35V134.317z"/>
	<g>
		<path fill="#ED1C24" d="M243.425,141.732c-0.552,0-1.115-0.098-1.66-0.303c-52.868-19.893-71.652-62.376-85.368-93.398
			c-11.03-24.954-17.976-39.075-32.37-39.075c-14.402,0-21.346,14.121-32.383,39.08c-13.719,31.022-32.507,73.508-85.38,93.394
			c-2.369,0.894-5.035-0.254-5.953-2.563c-0.917-2.308,0.261-4.897,2.634-5.789c49.265-18.527,66.44-57.37,80.241-88.581
			C93.743,20.622,102.864,0,124.027,0c21.159,0,30.275,20.619,40.827,44.491c13.801,31.208,30.972,70.051,80.231,88.586
			c2.373,0.892,3.55,3.484,2.632,5.789C247.014,140.644,245.271,141.732,243.425,141.732z"/>
	</g>
</g>
</svg>
